<?xml version="1.0" encoding="UTF-8"?>
<!DOCTYPE svg PUBLIC "-//W3C//DTD SVG 1.1//EN" "http://www.w3.org/Graphics/SVG/1.1/DTD/svg11.dtd">
<!-- Creator: CorelDRAW X8 -->
<svg xmlns="http://www.w3.org/2000/svg" xml:space="preserve" width="3.53222in" height="2.75943in" version="1.1" style="shape-rendering:geometricPrecision; text-rendering:geometricPrecision; image-rendering:optimizeQuality; fill-rule:evenodd; clip-rule:evenodd"
viewBox="0 0 8183 6393"
 xmlns:xlink="http://www.w3.org/1999/xlink">
 <defs>
  <style type="text/css">
   <![CDATA[
    .fil17 {fill:#6B809B}
    .fil4 {fill:#0046BD}
    .fil26 {fill:#00AB9C}
    .fil27 {fill:#0157EA}
    .fil14 {fill:#0455ED}
    .fil16 {fill:#2C2C80}
    .fil9 {fill:#557CFE}
    .fil25 {fill:#7CE6D0}
    .fil19 {fill:#7CE6D0}
    .fil5 {fill:#999999}
    .fil15 {fill:#999999}
    .fil8 {fill:#D1E8F9}
    .fil31 {fill:#D1E8F9}
    .fil6 {fill:#E5F7FB}
    .fil7 {fill:#E6E6E6}
    .fil0 {fill:#E8F6FB}
    .fil10 {fill:#FD6E4E}
    .fil18 {fill:#373435;fill-rule:nonzero}
    .fil20 {fill:#000066;fill-rule:nonzero}
    .fil3 {fill:#00AB9C;fill-rule:nonzero}
    .fil11 {fill:#0157EA;fill-rule:nonzero}
    .fil29 {fill:#2C2C80;fill-rule:nonzero}
    .fil12 {fill:#A9C9EE;fill-rule:nonzero}
    .fil22 {fill:#CD5952;fill-rule:nonzero}
    .fil21 {fill:#E46350;fill-rule:nonzero}
    .fil13 {fill:white;fill-rule:nonzero}
    .fil28 {fill:black;fill-opacity:0.211765}
    .fil30 {fill:#0046BD;fill-opacity:0.231373}
    .fil1 {fill:#6666FF;fill-rule:nonzero;fill-opacity:0.231373}
    .fil23 {fill:url(#id0)}
    .fil24 {fill:url(#id1)}
    .fil2 {fill:url(#id2)}
   ]]>
  </style>
  <linearGradient id="id0" gradientUnits="userSpaceOnUse" x1="1688.44" y1="5747.63" x2="2596.24" y2="4647.28">
   <stop offset="0" style="stop-opacity:1; stop-color:#7CE6D0"/>
   <stop offset="1" style="stop-opacity:1; stop-color:#00AB9C"/>
  </linearGradient>
  <linearGradient id="id1" gradientUnits="userSpaceOnUse" x1="1676.6" y1="4268.79" x2="3474.97" y2="4941.09">
   <stop offset="0" style="stop-opacity:1; stop-color:#557CFE"/>
   <stop offset="1" style="stop-opacity:1; stop-color:#0157EA"/>
  </linearGradient>
  <linearGradient id="id2" gradientUnits="userSpaceOnUse" xlink:href="#id0" x1="6022.99" y1="3845.85" x2="5462.89" y2="5464.27">
  </linearGradient>
 </defs>
 <g id="Layer_x0020_1">
  <metadata id="CorelCorpID_0Corel-Layer"/>
  <g id="_1329943606960">
   <path class="fil0" d="M4200 615c7,356 -212,535 -425,568 -128,20 -310,-35 -592,-200 -361,-212 -659,-202 -839,-71 -212,154 -262,476 -60,801 209,335 -380,603 -877,81 -491,-516 -1602,360 -746,932 78,-30 428,203 -121,583 -1628,1128 1047,1002 -25,2057 -467,460 16,753 472,520 153,-25 204,30 239,115l0 0 5418 0c-15,-15 -31,-31 -48,-47 -140,-133 -16,-382 267,-176 283,205 583,-243 240,-447 -184,-110 -78,-381 66,-345 608,153 687,213 892,74 241,-164 166,-727 -598,-1632 -396,-469 520,-578 199,-1133 -172,-297 -421,-509 -1082,-327 -52,14 -643,136 -629,-858 14,-1067 -1771,-1609 -1751,-495zm3558 2768c0,1 394,472 215,448 -2,0 -421,-481 -425,-518 -10,-95 88,-448 117,-26 2,31 94,99 93,96zm-3504 -3282c29,14 25,-30 27,47 0,21 -40,7 -41,55 -2,43 -106,-20 -2,-106 2,-1 15,3 16,4zm-124 236c-64,114 2,318 -47,368 -109,111 -73,-330 -12,-392 6,-7 84,-120 69,13 -1,11 -4,1 -10,11zm2840 1475c84,-13 62,51 29,51 -41,0 -47,-48 -29,-51zm-473 20c206,0 100,-39 253,-68 20,-4 99,-38 82,40 -14,69 -128,4 -205,73 -25,22 -152,62 -130,-45zm-4826 -24c114,161 474,251 474,37 -27,0 -29,-17 -119,-17 -196,0 -155,-210 -309,-146 -56,23 -61,104 -46,126zm348 -169c32,29 77,60 108,-3 24,-49 -59,-142 -118,-46 -1,1 -14,68 13,41 1,-1 9,0 11,3l-14 5z"/>
   <path class="fil1" d="M1711 2806c7,11 4,25 -7,32 -11,7 -25,4 -32,-7 -18,-28 -42,-37 -63,-34 -16,3 -32,12 -43,26 -11,14 -18,32 -16,52 2,39 33,85 115,125 18,9 59,-11 78,-21 4,-18 11,-36 20,-56 27,-64 61,-144 -80,-211l-13 -5c-28,-10 -59,-9 -85,2 -27,11 -50,32 -65,62l-6 16c-8,23 -19,40 -29,56 -24,37 -44,68 16,182 17,34 70,58 130,67 37,5 76,5 111,-3 34,-7 65,-21 87,-43 25,-24 39,-59 35,-106 -1,-17 0,-37 1,-58 4,-67 10,-153 -81,-188 -12,-5 -18,-18 -13,-30 4,-12 18,-18 30,-14 122,47 116,153 111,235 -1,19 -3,37 -1,51 5,63 -15,110 -49,144 -29,28 -68,46 -110,55 -41,8 -86,9 -127,3 -74,-11 -141,-44 -165,-91 -72,-138 -46,-180 -14,-229 9,-14 18,-29 24,-46l8 -21c20,-41 52,-70 89,-85 37,-15 79,-16 118,-3l17 7c182,86 139,189 104,271 -9,21 -18,41 -19,56l-1 13 -15 7c-18,10 -85,45 -126,25 -100,-49 -138,-111 -142,-164 -2,-32 9,-62 27,-84 18,-23 44,-38 72,-43 38,-6 80,9 109,55z"/>
   <path class="fil1" d="M5217 2174c3,4 2,10 -3,13 -4,2 -10,1 -12,-3 -7,-11 -17,-15 -25,-13 -7,1 -13,4 -17,10 -4,5 -7,12 -7,20 1,15 14,34 46,50 7,3 23,-5 31,-9 1,-7 4,-14 8,-22 10,-25 24,-56 -32,-83l-5 -2c-11,-4 -23,-3 -34,1 -10,4 -19,12 -25,24l-3 6c-3,9 -7,16 -11,23 -9,14 -17,27 6,72 7,13 28,22 52,26 14,2 29,2 43,-1 14,-3 26,-9 35,-17 9,-10 15,-23 14,-42 -1,-7 0,-15 0,-23 2,-26 4,-61 -32,-74 -5,-2 -7,-7 -5,-12 1,-5 7,-7 11,-5 49,18 46,60 44,92 0,8 -1,15 0,20 2,25 -6,44 -19,57 -12,11 -27,18 -44,22 -16,3 -34,3 -50,1 -29,-4 -55,-17 -65,-36 -29,-54 -18,-71 -6,-90 4,-6 8,-12 10,-19l3 -8c8,-16 21,-27 35,-33 15,-6 31,-7 47,-1l7 2c72,34 54,75 40,107 -3,9 -6,17 -7,22l0 5 -6 3c-7,4 -34,18 -50,10 -39,-19 -55,-43 -56,-65 -1,-12 4,-24 11,-33 7,-9 17,-15 28,-17 15,-2 32,4 43,22z"/>
   <path class="fil1" d="M5244 5602c4,6 2,14 -4,18 -6,3 -14,2 -18,-4 -10,-16 -23,-21 -35,-19 -9,1 -18,6 -24,14 -6,8 -10,18 -9,29 1,22 18,48 65,70 10,5 32,-6 43,-11 2,-10 7,-21 11,-32 16,-36 35,-80 -45,-118l-7 -3c-16,-5 -33,-5 -48,1 -15,6 -28,18 -36,35l-3 9c-5,13 -11,22 -17,31 -13,21 -24,39 9,103 10,18 40,32 73,37 21,3 43,3 62,-1 20,-5 37,-12 49,-25 14,-13 22,-33 20,-59 -1,-10 0,-21 1,-33 2,-37 5,-86 -46,-105 -7,-3 -10,-11 -7,-17 2,-7 10,-10 16,-8 69,27 66,86 63,132 -1,11 -2,21 -1,29 3,35 -8,61 -27,80 -17,16 -38,26 -62,31 -23,5 -48,5 -71,2 -42,-6 -79,-25 -93,-51 -40,-77 -25,-101 -8,-129 5,-7 11,-16 14,-26l5 -11c11,-23 29,-40 50,-48 20,-8 44,-9 65,-2l10 4c102,49 78,106 58,152 -5,12 -10,23 -10,32l-1 7 -8 4c-10,5 -48,25 -71,14 -56,-28 -78,-62 -80,-92 -1,-18 5,-35 16,-47 10,-13 24,-22 40,-24 21,-4 45,5 61,31z"/>
   <path class="fil1" d="M1874 3660c6,-4 14,-3 18,3 4,6 3,14 -3,18 -15,11 -20,24 -17,36 2,9 7,18 15,24 8,6 19,9 30,8 21,-3 47,-22 67,-69 4,-10 -8,-32 -14,-43 -10,-1 -21,-5 -32,-9 -37,-14 -82,-31 -116,50l-3 8c-4,16 -3,33 4,47 7,15 19,27 36,35l9 3c13,4 23,9 33,15 21,12 39,22 101,-14 19,-11 31,-41 34,-75 2,-21 1,-43 -4,-62 -5,-19 -14,-36 -27,-48 -14,-13 -34,-20 -60,-17 -10,2 -21,1 -33,1 -38,0 -86,-1 -103,51 -2,7 -10,11 -17,8 -6,-2 -10,-9 -8,-16 23,-70 82,-69 128,-69 11,0 21,1 29,-1 35,-4 62,6 82,24 17,15 28,37 34,60 6,23 8,48 5,71 -4,42 -21,80 -46,95 -76,44 -100,30 -128,14 -8,-4 -17,-9 -27,-12l-12 -4c-23,-10 -40,-27 -50,-48 -9,-20 -11,-43 -5,-65l4 -11c43,-104 102,-82 149,-65 12,5 23,9 32,9l7 1 4 8c6,9 28,46 18,70 -25,57 -58,80 -88,84 -18,2 -35,-4 -48,-13 -13,-10 -23,-24 -26,-39 -4,-22 3,-46 28,-63z"/>
   <path class="fil2" d="M5641 3912l319 929c32,94 20,188 -26,265l-3 4 -74 119c-40,86 -120,154 -227,187 151,29 373,37 414,-147 65,-284 -162,-245 65,-449 282,-256 189,-615 78,-626 -420,-41 328,-281 -97,-713 -103,-105 -335,-98 -262,214 109,460 -69,243 -187,217z"/>
   <polygon class="fil3" points="5919,4304 5630,4075 5645,4055 5922,4275 5985,3671 5895,3538 5916,3524 5989,3633 6000,3532 6024,3534 5988,3878 6115,3805 6127,3826 5985,3909 5919,4547 6180,4437 6190,4459 5916,4575 5900,4722 5876,4719 "/>
   <path class="fil4" d="M3545 936l4 12c13,39 -12,76 -57,84l-764 126c-44,8 -92,-17 -105,-56l-39 -114c-3,-10 -4,-19 -3,-28l-605 100c-49,8 -91,27 -125,53 27,-75 98,-135 197,-151l606 -101c-2,9 -1,19 2,29l40 114c13,38 60,64 105,56l744 -124z"/>
   <path class="fil5" d="M1644 1147c-3,5 -7,11 -10,17l0 0 0 0c-44,76 -55,167 -23,259l1388 4046c69,203 319,336 554,297l2014 -335c138,-23 242,-100 290,-202l-60 46c22,-13 42,-29 60,-46l77 -123 -201 118 -2105 363 -402 -148 -1375 -4143 -65 0 -55 -290 -87 141z"/>
   <path class="fil6" d="M1852 1247l744 2167 22 67 347 1010 147 429 36 103 92 270c12,35 33,67 59,94 69,73 180,114 288,100 4,0 9,-1 13,-2l44 -7 85 -14 39 -7 92 -15 94 -16 258 -42 58 -10 246 -41 57 -9 85 -14 39 -7 91 -15 95 -16 258 -43 58 -9 246 -41 57 -10 84 -14 27 -4c4,-1 9,-2 13,-3 98,-20 168,-84 188,-163 4,-13 6,-28 7,-42 0,-7 0,-15 0,-22 -2,-18 -5,-36 -12,-55l-48 -140 -15 -43 -28 -84 -35 -100 -58 -170 -25 -72 -19 -57 -19 -54 -7 -21 -19 -55 -63 -185 -16 -44 -20 -60 -27 -79c-6,3 -14,5 -21,8 -7,2 -15,4 -23,6 -18,5 -38,10 -60,15 -17,3 -36,7 -55,11 -6,1 -12,2 -17,3l4 12 9 28 15 44 28 81 24 69 0 2c3,6 4,12 3,18 0,26 -20,49 -52,54l-5 1 -31 5 -47 8 -105 17 -58 10 -224 37 -58 10 -213 35 -62 10 -17 3 -57 10 -9 1 -48 8 -30 5 -48 8 -105 18 -58 9 -224 37 -58 10 -213 36 -62 10 -17 3 -57 9 -9 2 -48 8 -30 5 -48 8 -73 12c-12,2 -23,1 -34,-1 -27,-7 -49,-24 -57,-48l-85 -247c-9,-26 3,-52 28,-65 6,-3 14,-6 21,-7l167 -27 65 -11 25 -5 57 -9 61 -10 47 -8 29 -5 47 -8 48 -7 58 -10 245 -41 58 -10 188 -31 66 -11 25 -4 57 -9 61 -11 47 -7 28 -5 48 -8 48 -8 57 -9 119 -20c38,-15 80,-30 121,-42 19,-6 37,-12 56,-16 22,-6 44,-11 65,-14 121,-20 148,-33 168,-49 8,-7 15,-14 28,-23 39,-27 63,-57 78,-81 6,-11 11,-20 14,-28 5,-13 7,-22 7,-22l11 -23 -7 -20 -23 -67 -27 -79 -7 -20 -20 -58 -56 -163 -14 -41 -57 -165 -82 -241 -53 -154 -13 -38 -69 -199 -14 -43 -91 -265 -55 -161 -25 -72 -16 -46 -7 -22 -19 -55 -66 -191 -97 -283 -84 -245c-11,-32 -28,-61 -51,-86 -6,-7 -12,-13 -18,-19 -40,-37 -90,-65 -145,-80 -31,-8 -62,-12 -94,-12 -8,0 -15,0 -22,1 -10,1 -20,2 -30,3l-38 7 -33 5 -47 8 -112 19 -58 9 -207 35c7,7 13,16 16,26l39 114c4,10 5,21 3,30 -4,22 -20,40 -44,49 -5,2 -10,3 -16,4l-131 22 -113 19 -109 18 -67 11 -46 8 -46 7 -65 11 -58 10 -128 21c-45,8 -92,-18 -105,-56l-40 -114c-3,-10 -4,-20 -2,-29l-38 7 -58 9 -248 41 -60 10 -19 4 -65 10 -33 6 -48 8 -37 6c-26,4 -50,12 -72,21 -18,8 -35,18 -50,30 -73,55 -105,144 -74,234z"/>
   <path class="fil7" d="M2004 833c-236,39 -372,236 -302,439l1388 4046c69,202 319,336 554,297l2014 -335c235,-39 371,-237 302,-439l-1388 -4046c-70,-203 -319,-336 -555,-297l-2013 335zm1562 -123c7,7 13,16 16,26l39 114c14,38 -12,76 -57,83l-763 127c-45,8 -92,-18 -105,-56l-40 -114c-3,-10 -4,-20 -2,-29l-606 101c-153,25 -241,154 -196,285l1388 4046c45,131 207,218 360,192l2013 -334c153,-26 241,-154 196,-285l-1388 -4046c-45,-131 -207,-218 -360,-193l-495 83z"/>
   <path class="fil8" d="M3479 1787l-97 16c-98,17 -154,99 -126,183l46 131c1,4 2,7 4,11 -155,-46 -286,-156 -335,-297 -39,-113 -17,-224 48,-310 58,-78 153,-135 272,-155 118,-20 240,2 343,53 113,56 204,148 243,261 50,147 0,291 -118,380 -1,-6 -2,-12 -5,-18l-45 -132c-28,-84 -132,-139 -230,-123zm53 -189c-25,-73 -114,-120 -198,-106 -85,14 -133,84 -108,157 25,73 113,120 198,106 85,-14 133,-84 108,-157z"/>
   <path class="fil9" d="M3479 1787c98,-16 202,39 230,123l45 132c3,6 4,12 5,18 -54,41 -122,71 -201,84 -86,15 -172,8 -252,-16l-4 -11 -46 -131c-28,-84 28,-166 126,-183l97 -16zm53 -189c25,73 -23,143 -108,157 -85,14 -173,-33 -198,-106 -25,-73 23,-143 108,-157 84,-14 173,33 198,106z"/>
   <path class="fil8" d="M4803 2680l-2031 338c-34,5 -53,37 -42,70l85 247c12,33 49,56 83,50l2031 -337c34,-6 52,-38 41,-71l-85 -247c-11,-33 -48,-56 -82,-50z"/>
   <path class="fil8" d="M4971 3172l-2030 338c-35,5 -53,37 -42,70l85 247c11,33 49,56 83,50l2030 -337c35,-6 53,-38 42,-71l-85 -247c-11,-33 -49,-56 -83,-50z"/>
   <path class="fil10" d="M4911 4650l-957 159c-29,5 -44,31 -35,59l71 204c9,27 40,46 68,41l957 -159c29,-5 44,-31 35,-58l-70 -205c-10,-27 -41,-46 -69,-41z"/>
   <path class="fil11" d="M3063 2800l-12 -36c4,2 10,4 16,6 6,1 12,2 18,3 6,1 13,1 19,1 6,0 11,-1 16,-2 17,-2 29,-7 36,-13 6,-6 8,-14 5,-23 -2,-5 -5,-9 -9,-13 -4,-3 -9,-6 -15,-8 -6,-2 -13,-4 -20,-6 -8,-1 -16,-3 -25,-5 -10,-2 -19,-5 -27,-7 -9,-3 -16,-6 -23,-10 -7,-4 -13,-9 -18,-14 -5,-6 -9,-12 -12,-20 -3,-10 -3,-19 -1,-27 3,-8 8,-15 14,-22 7,-6 16,-11 26,-15 10,-4 20,-7 32,-9 25,-4 44,-5 58,-2l12 35c-17,-6 -36,-8 -58,-4 -6,1 -12,2 -18,4 -5,2 -10,5 -14,8 -4,3 -7,6 -8,10 -2,4 -2,9 -1,14 2,4 5,8 8,11 3,3 8,6 13,8 6,2 12,4 19,6 7,1 16,3 25,5 10,2 19,5 28,8 9,3 17,6 25,10 7,4 14,9 19,15 6,5 10,12 12,20 4,11 5,20 2,28 -2,8 -7,15 -14,21 -7,6 -15,11 -26,15 -10,4 -21,7 -33,9 -5,1 -10,1 -16,2 -6,0 -12,0 -19,0 -7,0 -13,0 -19,0 -6,-1 -11,-2 -15,-3zm245 -32l-41 7 -72 -210 41 -7 72 210zm246 -56c-22,16 -48,27 -79,32 -36,6 -69,1 -98,-14 -29,-16 -49,-40 -59,-71 -12,-33 -8,-62 9,-86 17,-25 45,-41 82,-47 27,-5 51,-5 72,-1l12 36c-22,-8 -46,-10 -72,-5 -26,4 -45,15 -56,32 -12,18 -14,38 -6,62 9,24 22,41 41,53 19,11 41,15 66,11 16,-3 30,-8 40,-16l-17 -50 -51 9 -10 -29 92 -16 34 100zm264 -29l-44 8 -170 -135c-4,-4 -8,-7 -11,-11l-1 0c2,4 6,14 11,29l47 137 -39 7 -72 -210 47 -8 165 132c6,5 11,9 13,11l1 0c-3,-5 -7,-15 -12,-28l-46 -135 39 -6 72 209zm315 -142c20,59 -3,94 -67,105 -63,10 -103,-13 -123,-70l-44 -128 41 -7 41 121c14,42 40,59 77,53 36,-6 47,-29 34,-69l-43 -123 41 -6 43 124zm100 -7l26 76 -40 7 -72 -210 74 -12c28,-5 52,-3 71,6 19,8 32,23 39,43 7,21 5,39 -7,54 -11,16 -31,26 -58,30l-33 6zm-36 -105l27 77 26 -5c17,-3 29,-8 36,-17 7,-8 8,-19 3,-31 -8,-25 -29,-34 -62,-29l-30 5z"/>
   <path class="fil12" d="M3033 3147l-44 7 10 31 41 -7 5 14 -41 7 15 42 -20 4 -35 -102 64 -10 5 14zm128 27c10,29 -1,46 -33,51 -30,5 -50,-6 -59,-34l-21 -62 19 -3 20 59c7,20 20,28 38,25 17,-3 22,-14 16,-33l-21 -60 20 -3 21 60zm107 26l-65 11 -35 -102 19 -3 30 87 46 -7 5 14zm83 -14l-66 11 -35 -101 20 -4 30 88 46 -8 5 14zm163 -27l-21 4 -82 -66c-2,-1 -4,-3 -6,-5l0 0c1,2 3,7 5,14l23 67 -19 3 -35 -102 23 -4 80 64c3,3 5,5 6,6l1 0c-2,-3 -4,-8 -6,-14l-22 -65 19 -4 34 102zm127 -21l-22 4 -19 -24 -47 7 -1 28 -22 3 10 -109 22 -3 79 94zm-51 -33l-30 -38c-1,-1 -3,-3 -4,-6l-1 0c1,3 1,5 1,6l-2 44 36 -6zm194 9l-19 3 -23 -65c-2,-6 -4,-12 -6,-20l0 0c0,4 0,8 0,10l-9 82 -14 2 -61 -69c-2,-3 -4,-6 -7,-10l0 0c2,4 4,11 8,20l22 65 -18 3 -35 -101 28 -5 54 63c4,4 7,8 9,11l0 -1c0,-5 1,-9 1,-12l8 -73 27 -4 35 101zm95 -16l-66 11 -35 -101 64 -11 5 15 -44 7 10 29 40 -7 5 14 -40 7 10 30 47 -8 4 14z"/>
   <path class="fil12" d="M3204 3715l-66 11 -35 -101 64 -11 5 14 -44 8 10 28 40 -6 5 14 -40 7 10 30 47 -8 4 14zm148 -24l-19 3 -23 -66c-1,-5 -3,-12 -5,-20l-1 0c1,5 1,8 1,10l-10 82 -13 2 -61 -69c-2,-2 -4,-5 -7,-10l0 0c1,4 4,11 7,20l23 66 -19 3 -34 -102 27 -4 55 62c4,5 7,8 8,11l1 0c0,-6 0,-10 0,-13l9 -73 27 -4 34 102zm127 -21l-22 3 -19 -24 -47 8 -1 27 -22 4 10 -109 22 -4 79 95zm-51 -34l-31 -38c-1,-1 -2,-3 -3,-6l-1 0c1,3 1,5 1,7l-2 43 36 -6zm87 28l-20 3 -35 -102 20 -3 35 102zm95 -16l-66 11 -35 -102 20 -3 30 87 46 -7 5 14z"/>
   <path class="fil13" d="M4264 4957l-5 -14c2,1 4,2 6,2 2,1 5,1 7,2 2,0 5,0 7,0 2,0 4,0 6,-1 7,-1 11,-2 14,-5 2,-2 3,-5 2,-9 -1,-1 -2,-3 -4,-4 -1,-1 -3,-2 -5,-3 -3,-1 -5,-2 -8,-2 -3,-1 -6,-2 -9,-2 -4,-1 -7,-2 -11,-3 -3,-1 -6,-2 -8,-4 -3,-1 -5,-3 -7,-5 -2,-2 -4,-5 -5,-8 -1,-4 -1,-7 0,-10 1,-3 3,-6 5,-8 3,-2 6,-4 10,-6 4,-1 8,-3 12,-3 10,-2 17,-2 22,-1l4 13c-6,-2 -13,-3 -21,-1 -3,0 -5,0 -7,1 -2,1 -4,2 -5,3 -2,1 -3,3 -4,4 0,2 0,3 0,5 1,2 2,3 3,5 2,1 3,2 5,2 2,1 5,2 7,3 3,0 6,1 10,1 3,1 7,2 10,3 4,2 7,3 10,4 2,2 5,4 7,6 2,2 4,5 5,8 1,4 1,7 0,10 -1,3 -2,6 -5,8 -3,3 -6,4 -10,6 -4,1 -8,2 -13,3 -1,0 -3,1 -5,1 -3,0 -5,0 -8,0 -2,0 -4,0 -7,0 -2,0 -4,-1 -5,-1zm136 -53c8,22 0,35 -25,39 -23,4 -39,-5 -46,-26l-17 -49 16 -2 15 45c6,16 15,23 29,20 14,-2 18,-11 13,-26l-16 -46 15 -3 16 48zm33 28l-27 -79 29 -5c9,-2 17,-1 23,1 6,3 11,7 12,12 2,5 2,9 0,13 -2,3 -5,6 -10,9l0 0c7,0 12,1 17,3 5,3 9,7 11,13 2,7 1,13 -4,18 -5,5 -12,8 -21,10l-30 5zm-8 -71l7 22 10 -1c6,-1 9,-3 12,-6 2,-2 3,-6 1,-10 -2,-6 -9,-9 -19,-7l-11 2zm11 33l9 25 13 -2c5,-1 9,-3 12,-6 2,-3 3,-6 1,-10 -3,-8 -11,-11 -24,-9l-11 2zm175 8l-15 3 -17 -51c-2,-5 -3,-10 -5,-16l0 0c0,4 0,6 0,8l-7 64 -11 1 -47 -54c-2,-1 -3,-4 -5,-7l-1 0c2,3 4,8 6,15l18 51 -14 3 -28 -79 22 -4 42 49c3,3 6,6 7,8l0 0c0,-4 1,-8 1,-10l7 -56 20 -4 27 79zm39 -6l-16 3 -27 -80 16 -2 27 79zm58 -82l-26 5 23 68 -15 2 -23 -68 -27 5 -4 -12 69 -11 3 11z"/>
   <path class="fil8" d="M5147 3684l-2031 337c-34,6 -53,38 -41,71l85 247c11,33 48,56 82,50l2031 -337c34,-6 53,-38 41,-71l-84 -247c-12,-33 -49,-56 -83,-50z"/>
   <path class="fil14" d="M3287 4141c27,-5 55,10 62,33 8,23 -7,45 -33,49 -27,5 -55,-10 -63,-33 -7,-23 8,-45 34,-49z"/>
   <path class="fil14" d="M3915 4039c26,-4 54,11 62,34 8,22 -8,44 -34,49 -27,4 -54,-11 -62,-33 -8,-23 7,-45 34,-50z"/>
   <path class="fil14" d="M3441 4115c27,-4 55,11 62,34 8,22 -7,44 -34,49 -26,4 -54,-11 -62,-34 -8,-22 8,-44 34,-49z"/>
   <path class="fil14" d="M4068 4014c27,-5 55,10 63,33 7,23 -8,45 -34,49 -27,5 -55,-10 -62,-33 -8,-23 7,-45 33,-49z"/>
   <path class="fil14" d="M3600 4089c26,-5 54,10 62,33 8,23 -7,45 -34,49 -26,5 -54,-10 -62,-33 -8,-23 7,-45 34,-49z"/>
   <path class="fil14" d="M4227 3987c27,-4 55,11 62,34 8,22 -7,44 -33,49 -27,4 -55,-11 -63,-33 -7,-23 8,-45 34,-50z"/>
   <path class="fil14" d="M3759 4062c26,-4 54,11 62,34 8,23 -8,45 -34,49 -27,4 -54,-10 -62,-33 -8,-23 7,-45 34,-50z"/>
   <path class="fil14" d="M4386 3961c27,-4 54,10 62,33 8,23 -7,45 -34,49 -26,5 -54,-10 -62,-33 -8,-23 7,-45 34,-49z"/>
   <path class="fil15" d="M5740 1747c0,-181 -8,-356 -280,-328 -242,26 -212,122 -203,271 20,22 22,64 5,87l0 0c-1,3 -3,4 -5,6 -17,16 -62,51 -24,67 23,9 43,-3 54,-3l5 8c-1,5 -1,9 -3,13l-2 4c-7,17 -5,19 -5,19 0,0 14,6 32,8 2,5 5,11 7,17 -4,3 -8,6 -12,9 -13,9 -17,24 -6,31 10,6 23,7 32,12l0 0c21,98 66,117 115,109l93 -16 -5 2c9,6 18,12 27,19 77,-61 234,-117 322,-140 -120,-66 -147,-110 -147,-195zm-478 30l1 5 -1 -5zm282 284c5,-2 9,-4 0,0z"/>
   <path class="fil4" d="M6553 3220c22,109 -13,175 -19,226 -9,71 -41,137 -122,337 -128,314 -77,832 -77,832l128 1154 -535 229 844 -21c215,-5 -113,-1255 -131,-1354 91,-223 287,-1104 458,-1043l492 2045 -573 237 909 -25c-97,-639 -173,-1930 -488,-2827 -313,-85 -703,105 -886,210z"/>
   <path class="fil15" d="M4912 2916c-194,253 -706,191 -986,298 -38,15 -89,85 -127,120 -105,96 -19,106 0,88 47,-45 69,-66 110,-42 41,24 94,51 94,51 63,23 212,-89 231,-101 20,-12 653,-31 739,-91 66,-45 142,-128 233,-230 53,-59 108,-122 163,-184 -30,-30 -80,-71 -163,-139l-73 -59 -133 173 -88 116z"/>
   <path class="fil16" d="M5631 1956c59,52 65,141 14,200 -52,59 -141,65 -200,13 -59,-51 -65,-141 -13,-200 51,-58 141,-64 199,-13z"/>
   <path class="fil16" d="M5595 1976l2 -2c44,-50 95,-87 141,-105 52,-21 100,-19 133,9 16,18 17,45 6,58 -20,-8 -35,-21 -44,-27 -20,-13 -41,-7 -76,7 -40,16 -84,47 -122,92l-19 -17 -21 -15z"/>
   <path class="fil17" d="M5591 1674c-34,-2 -68,-6 -97,-13 22,2 58,8 97,13z"/>
   <path class="fil18" d="M5590 1682c-17,-1 -34,-2 -51,-5 -16,-2 -32,-5 -47,-8l2 -16c17,1 41,5 68,9l30 4 -2 16z"/>
   <path class="fil9" d="M5245 1622c-16,55 160,51 336,88 12,2 24,5 37,8 22,5 44,11 65,19 159,48 323,-30 201,-72 -60,-21 -106,-23 -148,-44l0 -56c0,-100 -82,-181 -182,-181l-127 0c-67,0 -125,36 -157,89 0,1 -1,2 -1,3 9,13 15,30 13,46l-2 22 -5 39c-2,19 -14,31 -30,31l0 8z"/>
   <path class="fil19" d="M5600 1992c38,34 42,93 8,132 -34,39 -92,43 -131,9 -39,-34 -43,-93 -9,-132 34,-38 93,-42 132,-9z"/>
   <path class="fil20" d="M5605 1987c21,18 32,43 34,69 2,26 -6,52 -25,73 -18,21 -43,33 -69,35 -26,1 -52,-7 -73,-25 -21,-19 -33,-44 -35,-70 -1,-25 7,-52 25,-73l0 0c19,-21 44,-33 69,-34 26,-2 53,6 74,24l0 1zm18 70c-1,-22 -11,-43 -29,-58l0 -1c-18,-15 -40,-22 -61,-20 -22,1 -43,11 -59,29l0 0c-15,18 -22,40 -21,61 2,22 12,43 29,59 18,15 40,22 62,21 22,-2 43,-12 58,-29 16,-18 23,-40 21,-62z"/>
   <path class="fil10" d="M2437 2969c76,-120 302,157 265,229 -27,53 -343,-105 -265,-229z"/>
   <polygon class="fil21" points="2463,2992 2703,3196 2700,3200 2460,2995 "/>
   <path class="fil22" d="M2465 2990l249 214 -6 7c-81,-69 -170,-146 -251,-215l6 -8 2 2z"/>
   <polygon class="fil21" points="2550,3071 2536,2987 2541,2986 2555,3070 "/>
   <path class="fil22" d="M2547 3071l-14 -87 10 -1c5,30 10,59 14,89l-9 2 -1 -3z"/>
   <polygon class="fil21" points="2600,3114 2507,3119 2507,3114 2599,3109 "/>
   <path class="fil22" d="M2600 3116l-96 5 0 -10c33,-1 65,-3 98,-5l0 10 -2 0z"/>
   <polygon class="fil21" points="2505,3032 2445,3036 2445,3031 2504,3027 "/>
   <path class="fil22" d="M2505 3035l-62 4 0 -10c21,-2 42,-3 64,-4l0 10 -2 0z"/>
   <polygon class="fil21" points="2645,3152 2639,3084 2644,3084 2650,3152 "/>
   <polygon class="fil22" points="2642,3152 2637,3082 2646,3081 2653,3154 2643,3155 "/>
   <path class="fil10" d="M2327 2359c141,-17 70,333 -9,350 -58,13 -136,-332 9,-350z"/>
   <polygon class="fil21" points="2326,2394 2320,2709 2315,2709 2321,2394 "/>
   <path class="fil22" d="M2328 2394l-6 328 -10 0c1,-107 4,-224 7,-331l9 0 0 3z"/>
   <polygon class="fil21" points="2319,2511 2376,2446 2379,2450 2323,2514 "/>
   <path class="fil22" d="M2317 2509l59 -66 7 6c-20,23 -40,46 -60,69l-7 -7 1 -2z"/>
   <polygon class="fil21" points="2318,2577 2255,2508 2259,2505 2322,2573 "/>
   <path class="fil22" d="M2316 2578l-64 -70 7 -7c22,24 44,48 66,72l-7 7 -2 -2z"/>
   <polygon class="fil21" points="2321,2451 2280,2408 2284,2405 2324,2448 "/>
   <path class="fil22" d="M2319 2453l-42 -45 7 -7c15,16 29,32 44,47l-8 7 -1 -2z"/>
   <polygon class="fil21" points="2317,2636 2366,2588 2370,2592 2321,2640 "/>
   <polygon class="fil22" points="2315,2634 2366,2585 2373,2592 2321,2643 2314,2636 "/>
   <path class="fil22" d="M2138 4072l0 -1c-12,-85 -4,-171 31,-256 94,-231 253,-299 408,-333 69,-35 119,-72 147,-109 15,-19 24,-38 26,-57 3,-18 0,-36 -9,-54 -11,-21 -29,-41 -55,-61l15 -20c29,23 49,46 61,70 12,22 16,45 12,69 -3,23 -13,45 -30,68 -21,27 -52,54 -93,80l34 -6c155,-26 286,-48 310,-220 22,-158 -81,-250 -196,-326 -139,-17 -259,-39 -345,-70 -90,-33 -144,-77 -147,-139l25 -2c2,51 50,89 131,118 73,27 172,46 288,62l-20 -13c-141,-87 -267,-165 -195,-323l22 10c-63,138 54,211 185,292 145,90 304,189 276,394 -26,190 -166,214 -330,241 -178,30 -386,65 -498,338 -20,49 -31,98 -33,148 29,-70 101,-152 277,-158 126,-5 219,12 295,26 101,19 170,31 247,-23l14 20c-85,60 -158,47 -265,27 -75,-13 -166,-30 -290,-26 -286,11 -274,232 -274,233l0 0c62,436 656,846 658,847l-14 20c-2,-1 -606,-417 -668,-866z"/>
   <path class="fil10" d="M3153 3750c67,125 -285,184 -330,117 -33,-50 261,-246 330,-117z"/>
   <polygon class="fil21" points="3121,3761 2824,3869 2822,3864 3119,3757 "/>
   <path class="fil22" d="M3121 3764l-309 111 -3 -9c100,-37 211,-76 311,-113l4 10 -3 1z"/>
   <polygon class="fil21" points="3009,3797 3089,3827 3088,3831 3007,3802 "/>
   <path class="fil22" d="M3010 3795l82 30 -3 9c-28,-10 -57,-20 -85,-31l3 -9 3 1z"/>
   <polygon class="fil21" points="2947,3820 2989,3736 2993,3739 2952,3822 "/>
   <path class="fil22" d="M2945 3819l42 -86 9 5c-14,29 -29,58 -43,87l-9 -4 1 -2z"/>
   <polygon class="fil21" points="3065,3777 3091,3724 3095,3726 3069,3779 "/>
   <path class="fil22" d="M3062 3776l28 -56 9 5c-10,19 -19,38 -29,57l-9 -4 1 -2z"/>
   <polygon class="fil21" points="2891,3840 2953,3869 2951,3873 2889,3845 "/>
   <polygon class="fil22" points="2892,3838 2957,3867 2952,3876 2886,3846 2890,3837 "/>
   <path class="fil10" d="M1901 4474c-5,-193 457,-52 471,57 9,79 -465,140 -471,-57z"/>
   <polygon class="fil21" points="1947,4479 2372,4527 2371,4534 1947,4486 "/>
   <path class="fil22" d="M1948 4476l442 51 -2 13c-143,-16 -301,-35 -445,-51l1 -14 4 1z"/>
   <polygon class="fil21" points="2105,4503 2025,4419 2030,4414 2109,4498 "/>
   <path class="fil22" d="M2102 4505l-82 -86 10 -10c28,30 56,60 84,89l-10 10 -2 -3z"/>
   <polygon class="fil21" points="2193,4513 2092,4589 2088,4583 2189,4507 "/>
   <path class="fil22" d="M2195 4515l-103 78 -8 -10c35,-27 70,-54 105,-80l9 10 -3 2z"/>
   <polygon class="fil21" points="2025,4494 1961,4542 1957,4537 2021,4488 "/>
   <path class="fil22" d="M2027 4496l-67 51 -8 -11c23,-17 46,-35 69,-52l8 10 -2 2z"/>
   <polygon class="fil21" points="2273,4522 2215,4450 2220,4446 2278,4518 "/>
   <polygon class="fil22" points="2270,4524 2210,4449 2221,4441 2283,4518 2272,4526 "/>
   <path class="fil10" d="M2714 2268c-111,-89 -236,246 -177,302 42,41 290,-210 177,-302z"/>
   <polygon class="fil21" points="2696,2298 2534,2569 2539,2571 2700,2300 "/>
   <path class="fil22" d="M2694 2296l-168 283 9 5c55,-92 114,-193 169,-285l-9 -5 -1 2z"/>
   <polygon class="fil21" points="2640,2401 2626,2316 2621,2317 2635,2402 "/>
   <path class="fil22" d="M2642 2400l-14 -87 -10 2c5,30 10,60 15,89l10 -1 -1 -3z"/>
   <polygon class="fil21" points="2606,2457 2696,2432 2694,2427 2605,2452 "/>
   <path class="fil22" d="M2607 2459l92 -25 -3 -10c-31,9 -63,18 -94,26l2 10 3 -1z"/>
   <polygon class="fil21" points="2670,2350 2727,2334 2726,2329 2669,2345 "/>
   <path class="fil22" d="M2671 2352l59 -16 -2 -10c-21,6 -41,11 -62,17l2 10 3 -1z"/>
   <polygon class="fil21" points="2576,2508 2559,2442 2554,2443 2571,2509 "/>
   <polygon class="fil22" points="2578,2507 2561,2439 2551,2441 2569,2512 2579,2510 "/>
   <path class="fil10" d="M5737 3542c-72,-114 -278,129 -269,216l5 -4 5 7 44 -38 5 -69 10 1 -5 59 40 -34 0 -1 1 0 44 -38c5,-28 10,-57 14,-85l10 1 -12 74 38 -33 0 0 1 0 41 -35 2 -2 6 7 -35 31c17,1 33,2 49,3l0 9 -60 -3 -45 39 0 0 0 0 -38 33c27,1 55,3 82,4l-1 10 -92 -5c-31,27 -63,54 -93,80l4 5c-2,1 -5,3 -7,5 58,24 329,-122 256,-237z"/>
   <polygon class="fil21" points="5711,3564 5470,3769 5474,3773 5714,3568 "/>
   <path class="fil22" d="M5709 3563l-41 35 14 1 35 -31 -6 -7 -2 2zm-42 35l-38 33 -2 13 -1 3 45 -39 -2 0 -2 0 0 -10zm-50 43l-44 38 15 1 38 -33 -10 -2 1 -4zm-45 39l-40 34 -1 11 0 3 -10 -1 1 -4 -44 38 6 8c30,-26 62,-53 93,-80l-3 0 -2 0 0 -9z"/>
   <polygon class="fil21" points="5624,3644 5638,3559 5633,3559 5619,3643 "/>
   <path class="fil22" d="M5627 3644l14 -87 -10 -1c-5,30 -10,59 -15,89l10 2 1 -3z"/>
   <polygon class="fil21" points="5574,3686 5667,3692 5667,3687 5574,3682 "/>
   <path class="fil22" d="M5574 3689l95 5 1 -10c-33,-2 -65,-3 -98,-5l0 10 2 0z"/>
   <polygon class="fil21" points="5669,3605 5728,3609 5729,3604 5670,3600 "/>
   <path class="fil22" d="M5669 3608l62 3 0 -9c-21,-2 -42,-3 -64,-4l0 10 2 0z"/>
   <polygon class="fil21" points="5529,3725 5535,3657 5530,3657 5524,3725 "/>
   <polygon class="fil22" points="5531,3725 5537,3655 5527,3654 5521,3727 5531,3728 "/>
   <path class="fil10" d="M5847 2932c-136,-17 -75,306 0,347l5 0 -1 -66 -50 -48 7 -7 42 41 -1 -52 -1 -1 1 -1 -1 -57c-19,-22 -38,-44 -57,-66l7 -6 50 56 -1 -50 -1 -1 1 0 -2 -54 0 -3 10 0 1 46c12,-12 23,-24 34,-36l7 7 -40 43 1 60 0 0 0 0 1 51c19,-20 37,-41 56,-61l7 7 -63 68c1,44 2,88 3,130l5 0 0 2c56,-25 117,-332 -20,-349z"/>
   <polygon class="fil21" points="5848,2967 5854,3282 5859,3282 5853,2966 "/>
   <path class="fil22" d="M5845 2967l2 54 9 -11 -1 -46 -10 0 0 3zm2 55l1 50 8 10 2 2 -1 -60 -2 2 -2 2 -6 -6zm1 66l1 57 10 -10 -1 -51 -7 7 -3 -3zm1 59l1 52 8 8 2 2 -7 7 -2 -3 1 66 10 0c-1,-42 -2,-86 -3,-130l-2 2 -1 2 -7 -6z"/>
   <polygon class="fil21" points="5855,3084 5798,3019 5794,3023 5851,3087 "/>
   <path class="fil22" d="M5856 3082l-58 -66 -7 6c20,23 40,46 60,69l7 -7 -2 -2z"/>
   <polygon class="fil21" points="5856,3149 5919,3081 5915,3078 5852,3146 "/>
   <path class="fil22" d="M5857 3151l65 -70 -7 -7c-22,24 -44,48 -67,72l8 7 1 -2z"/>
   <polygon class="fil21" points="5853,3024 5894,2981 5890,2978 5850,3021 "/>
   <path class="fil22" d="M5855 3026l42 -45 -7 -7c-15,16 -29,31 -44,47l7 7 2 -2z"/>
   <polygon class="fil21" points="5857,3209 5808,3161 5804,3165 5853,3212 "/>
   <polygon class="fil22" points="5858,3207 5808,3158 5801,3165 5853,3216 5860,3209 "/>
   <path class="fil22" d="M6036 4645l0 -1c12,-85 4,-171 -31,-256 -95,-231 -253,-299 -408,-333 -69,-35 -119,-72 -147,-109 -15,-19 -24,-38 -26,-57 -3,-18 0,-36 9,-54 11,-21 29,-41 55,-61l-15 -20c-29,23 -50,46 -62,70 -11,22 -15,45 -12,69 4,22 14,45 31,68 21,27 52,54 93,80l-34 -6c-155,-26 -286,-48 -310,-220 -22,-158 81,-250 195,-326 140,-17 260,-39 345,-70 91,-33 145,-77 148,-140l-25 -1c-2,51 -50,89 -131,118 -73,27 -172,46 -288,62l20 -13c137,-85 260,-161 201,-311 -1,2 -2,4 -4,6l8 12 -9 5 -6 -11c-3,1 -7,2 -10,1 47,129 -67,199 -192,277 -145,90 -304,189 -276,394 26,190 166,213 330,241 178,30 386,65 498,338 20,49 30,98 33,148 -29,-70 -101,-152 -277,-158 -126,-5 -220,12 -295,26 -33,6 -63,12 -91,14 0,3 0,5 0,7l12 5 -3 9 -14 -5c-3,4 -8,7 -13,10 34,-2 71,-8 113,-16 75,-14 166,-30 290,-26 286,10 274,232 274,233l0 0c-9,63 -29,126 -58,187l11 33c35,-71 61,-145 71,-219z"/>
   <path class="fil10" d="M5021 4322c-66,124 273,183 327,121l-63 -23 -64 29 -4 -9 54 -25 -49 -17 -1 0 0 -1 -55 -19c-27,9 -54,19 -81,29l-4 -9 71 -26 -48 -17 0 0 -1 0 -51 -19 -2 0 4 -10 43 16c-7,-15 -14,-30 -22,-44l9 -5 26 54 56 20 1 0 0 0 47 17c-12,-24 -24,-49 -36,-74l8 -4 42 83c42,15 84,30 125,45 12,-56 -265,-236 -332,-112z"/>
   <polygon class="fil21" points="5053,4334 5350,4442 5352,4437 5055,4329 "/>
   <path class="fil22" d="M5052 4336l51 19 -6 -13 -43 -16 -4 10 2 0zm52 19l48 17 12 -4 2 -1 -56 -20 1 2 1 2 -8 4zm62 23l55 19 -7 -13 -47 -17 3 9 -4 2zm56 20l49 17 11 -4 2 -1 4 9 -3 1 77 28 3 -9c-44,-16 -91,-33 -137,-50l1 2 1 3 -8 4z"/>
   <polygon class="fil21" points="5165,4370 5085,4400 5086,4404 5167,4375 "/>
   <path class="fil22" d="M5164 4368l-83 30 4 9c28,-10 57,-20 85,-31l-3 -9 -3 1z"/>
   <polygon class="fil21" points="5227,4393 5185,4309 5181,4312 5222,4395 "/>
   <path class="fil22" d="M5229 4391l-43 -85 -8 4c14,30 29,59 43,88l9 -4 -1 -3z"/>
   <polygon class="fil21" points="5109,4350 5083,4297 5079,4299 5105,4352 "/>
   <path class="fil22" d="M5111 4349l-27 -56 -9 5c10,19 19,38 29,57l8 -4 -1 -2z"/>
   <polygon class="fil21" points="5283,4413 5221,4441 5223,4446 5285,4417 "/>
   <polygon class="fil22" points="5282,4411 5217,4440 5221,4449 5288,4419 5284,4410 "/>
   <path class="fil10" d="M5460 2841c109,-88 231,233 180,299l-34 -59 16 -67 -9 -2 -14 57 -27 -45 0 -1 -1 0 -29 -50c4,-28 9,-57 14,-85l-10 -2 -12 74 -26 -43 0 -1 -1 0 -27 -47 -2 -2 -8 5 24 40c-16,-4 -32,-9 -48,-13l-3 10 58 15 30 52 0 0 0 0 26 43c-26,-7 -53,-15 -79,-22l-3 10 89 25c23,38 46,77 69,114 -54,22 -283,-216 -173,-305z"/>
   <polygon class="fil21" points="5478,2871 5639,3142 5635,3144 5473,2873 "/>
   <path class="fil22" d="M5480 2869l27 47 -13 -4 -24 -40 8 -5 2 2zm28 48l26 43 -2 13 -1 3 -30 -52 2 1 2 0 3 -8zm34 56l29 50 -14 -4 -26 -43 10 1 1 -4zm30 51l27 45 -3 11 -1 3 10 2 1 -4 42 71 -9 5c-24,-40 -49,-83 -75,-125l3 0 2 1 3 -9z"/>
   <polygon class="fil21" points="5534,2974 5548,2889 5553,2890 5539,2974 "/>
   <path class="fil22" d="M5532 2973l14 -87 10 2c-5,30 -10,59 -15,89l-10 -1 1 -3z"/>
   <polygon class="fil21" points="5568,3030 5478,3005 5480,3000 5569,3025 "/>
   <path class="fil22" d="M5567 3032l-92 -25 3 -10c31,9 63,18 94,26l-3 10 -2 -1z"/>
   <polygon class="fil21" points="5504,2922 5447,2907 5448,2902 5505,2918 "/>
   <path class="fil22" d="M5503 2925l-60 -16 3 -10c21,6 41,11 62,17l-3 9 -2 0z"/>
   <polygon class="fil21" points="5598,3081 5615,3015 5619,3016 5603,3082 "/>
   <polygon class="fil22" points="5596,3080 5613,3012 5622,3014 5605,3085 5595,3083 "/>
   <path class="fil23" d="M1509 5270c-210,577 326,715 647,605 149,-51 184,-272 264,-489 -71,-51 -55,-180 24,-352 42,-90 -89,-154 -158,-46 -125,196 -221,259 -286,232 -53,-22 -188,-145 -97,-222 62,-52 89,-96 72,-142 -222,106 -403,241 -466,414z"/>
   <path class="fil3" d="M2138 5042c1,1 6,5 7,7l4 -12 -11 5zm7 7c1,1 1,1 0,1 -3,-1 -5,10 -18,26 -9,11 -20,25 -32,40l2 1 -10 30 -11 -3 -17 23c-18,26 -37,55 -57,86l243 234 -22 23 -238 -229c-33,53 -67,111 -99,171l173 230 -26 19 -164 -217c-69,134 -124,271 -128,366l-32 -1c3,-70 32,-160 73,-254l-258 -60 7 -31 264 61c16,-36 34,-73 53,-109l-1 -2 4 -3c17,-34 36,-68 55,-100l-291 -87 9 -30 298 88c39,-65 77,-125 111,-173l11 -16 -280 -93 10 -31 289 97c15,-20 28,-37 39,-50 23,-27 42,-41 53,-37 5,2 9,5 11,10l-17 8 -4 12zm49 64l168 121 -18 26 -169 -121 19 -26z"/>
   <path class="fil24" d="M1559 3770c-66,-116 -342,61 -115,302 13,13 59,57 62,75 11,54 -51,50 -76,53 -190,22 -181,503 183,289 60,-36 114,-75 125,-23 21,102 -329,140 -214,364 22,43 48,81 80,113 41,41 112,82 189,-21l59 -88c48,-67 90,-27 96,-20 56,63 36,116 -45,184 -91,77 44,200 97,222 65,27 161,-36 286,-232 69,-108 200,-44 158,46 -86,188 -97,323 -4,363 60,26 229,55 232,-58 1,-34 6,-90 0,-117 -46,-203 290,-125 149,75 -77,223 34,282 201,235 -2,-6 -4,-12 -7,-18l-185 -541 -2 2c0,-6 -2,-14 -5,-22l-208 -648c-5,-32 -51,-104 -19,-178 53,-122 -219,-84 -261,-65 -61,27 -24,127 -20,149 9,60 -13,97 -55,88 -126,-27 -78,-161 -78,-161 -28,-73 -142,-61 -150,25 -4,41 -56,57 -72,55 -47,-4 -71,-37 -71,-70 0,-20 50,-49 48,-64 -11,-101 -110,-84 -146,-40 -119,148 -146,-125 -232,-274z"/>
   <path class="fil11" d="M1541 3885c0,0 2,-2 3,-2l-6 -3 3 5zm3 -2c0,0 0,0 0,0 -2,5 0,22 7,46 8,26 21,58 38,92 37,75 96,157 165,188 8,3 16,7 25,11 -5,-24 -1,-57 29,-96 58,-74 73,-86 73,-86l16 18c0,0 -13,11 -70,83 -34,45 -27,78 -18,95 25,13 52,26 82,41 54,28 117,59 189,93l1 -6c0,-8 0,-18 0,-32 0,-22 -1,-54 2,-95 9,-141 40,-101 40,-101l-19 16c0,0 8,8 3,87 -2,41 -2,71 -2,93 1,15 1,26 0,34 0,5 -1,10 -2,14 109,50 240,104 397,156 -27,-38 -66,-105 -59,-174 3,-40 -3,-74 -9,-105 -10,-48 -18,-90 10,-141l21 12c-23,43 -16,81 -7,125 6,32 13,68 9,111 -8,87 64,171 77,186l128 40 41 13 9 28 -57 -18 -111 -35c-41,-12 -79,-25 -117,-38 -20,6 -148,52 -184,177 -31,108 -68,149 -110,195 -14,16 -28,32 -43,52 -58,75 -67,123 -67,123l-24 -5c0,0 10,-53 71,-133 16,-20 31,-37 45,-53 40,-44 75,-83 105,-186 31,-108 123,-161 172,-183 -127,-45 -236,-92 -328,-134 -10,5 -38,26 -121,106 -57,57 -119,102 -173,142 -93,68 -162,119 -142,178l-23 8c-26,-76 49,-131 151,-206 53,-39 114,-84 170,-139 55,-54 93,-84 118,-99 -65,-30 -122,-59 -172,-84 -28,-14 -53,-26 -77,-38l-4 4c0,0 -4,-3 -8,-10 -13,-6 -26,-12 -38,-18 -25,7 -199,54 -231,146l-23 -8c30,-86 162,-136 222,-154 -65,-39 -119,-116 -154,-187 -18,-35 -31,-69 -39,-96 -9,-30 -11,-53 -6,-63 1,-4 4,-7 8,-9l8 16 6 3zm1106 1041c-33,97 -63,127 -85,150 -23,22 -36,36 -34,121 4,146 -5,151 -5,151l14 20c0,0 -28,23 -33,-170 -3,-96 13,-112 40,-139 21,-21 49,-49 80,-141 63,-184 112,-189 124,-187 0,0 0,0 0,0l10 29c-63,-21 -98,128 -111,166z"/>
   <path class="fil25" d="M2615 4855l908 0c71,0 129,59 129,130l0 908c0,71 -58,129 -129,129l-908 0c-71,0 -129,-58 -129,-129l0 -908c0,-71 58,-130 129,-130z"/>
   <path class="fil26" d="M3150 5480l0 217c0,10 -8,18 -17,18l-127 0c-10,0 -18,-8 -18,-18l0 -217c-35,-25 -57,-65 -57,-112 0,-76 62,-138 138,-138 77,0 139,62 139,138 0,47 -23,87 -58,112z"/>
   <path class="fil26" d="M2976 4331c-204,0 -372,168 -372,372l0 153c4,0 8,-1 11,-1l124 0 0 -152c0,-130 107,-237 237,-237l186 0c130,0 238,107 238,237l0 152 123 0c4,0 8,1 11,1l0 -153c0,-204 -167,-372 -372,-372l-186 0z"/>
   <path class="fil4" d="M6304 5671l3 -57 -107 -144 -109 30 -82 -158 -109 -26 -2 57 22 46 -112 31 -28 -45 -110 -26 -2 57 81 158 -821 226c-120,-146 -308,-226 -461,-184 -92,25 -154,90 -179,175l-9 2c-4,38 -5,74 -3,109l0 0 0 6c4,55 21,114 51,172 106,206 341,332 525,282 152,-42 222,-193 180,-361l1272 -350zm-1483 293c-51,-100 -165,-161 -255,-137 -89,25 -120,126 -68,226 51,101 166,162 255,137 89,-24 120,-126 68,-226z"/>
   <path class="fil27" d="M6307 5614l-104 -201 -110 30 -81 -158 -112 31 22 46 -112 31 -28 -45 -112 31 81 158 -820 226c-120,-146 -308,-226 -461,-184 -184,51 -247,259 -141,465 106,206 341,331 525,281 153,-42 222,-193 181,-361l1272 -350zm-1483 293c-51,-100 -166,-161 -255,-137 -90,25 -120,126 -69,226 52,101 166,162 256,137 89,-24 120,-125 68,-226z"/>
   <polygon class="fil28" points="5732,5500 6076,5409 6093,5443 5751,5537 "/>
   <path class="fil29" d="M5781 2610c9,36 11,74 13,109 5,71 8,130 72,134 116,8 115,131 115,254 0,115 0,229 101,234 102,4 137,-52 140,-128 3,-79 -26,-179 -50,-259 -16,-54 -31,-101 -41,-143 -11,-42 -17,-78 -18,-110l16 0c1,30 7,65 18,106 10,42 24,89 40,143 25,80 54,182 51,264 -4,85 -42,147 -157,143 -116,-5 -116,-127 -116,-250 0,-115 1,-231 -100,-238 -78,-5 -82,-70 -87,-149 -2,-34 -4,-71 -13,-106l16 -4z"/>
   <path class="fil16" d="M5782 2662l0 0c10,-1 18,6 19,16l12 113c1,10 -6,18 -15,19l0 0c-10,1 -18,-6 -19,-15l-12 -114c-1,-9 6,-18 15,-19z"/>
   <path class="fil10" d="M5524 2116l0 0zm-74 96l-244 320 -73 95c27,21 51,41 73,59 83,68 133,109 163,139 79,-88 157,-172 223,-231 411,151 683,3 921,510 21,44 33,82 40,116 183,-105 573,-295 886,-210 -160,-454 -380,-808 -696,-924 -304,-112 -639,-207 -929,-128 -88,23 -172,63 -249,124 -14,10 -27,22 -41,34 -37,33 -63,64 -71,89l-3 7z"/>
   <path class="fil30" d="M7157 2996c-238,31 -474,149 -604,224 2,13 4,25 5,37 136,-68 370,-169 611,-205 95,-15 190,-19 282,-8 -4,-11 -8,-23 -12,-34 -90,-24 -186,-26 -282,-14z"/>
   <path class="fil14" d="M5462 1690c38,5 78,11 119,20l37 8c22,5 44,11 65,19 19,5 39,9 57,12 138,18 252,-47 144,-84 -60,-21 -106,-23 -147,-44 -1,0 -1,1 -1,1 -18,17 -66,41 -153,51 -2,0 -3,0 -4,0 -8,1 -16,2 -25,3l-65 3c-17,-1 -25,4 -27,11z"/>
   <path class="fil1" d="M5035 756c-8,-10 -7,-25 3,-33 10,-8 25,-7 33,3 21,25 46,31 67,25 16,-5 30,-16 39,-31 9,-15 14,-34 10,-54 -8,-38 -45,-79 -131,-108 -19,-7 -57,18 -74,30 -2,18 -7,38 -13,59 -19,66 -42,150 107,198l13 4c29,5 59,0 84,-14 25,-14 46,-37 56,-69l4 -17c5,-23 14,-42 22,-59 18,-40 34,-74 -40,-179 -21,-31 -77,-48 -138,-49 -36,-1 -75,5 -109,17 -33,12 -62,30 -81,54 -21,27 -31,63 -21,110 4,16 5,36 7,57 4,67 10,154 105,176 12,3 20,16 17,29 -3,12 -16,20 -28,17 -128,-31 -135,-137 -141,-218 -1,-20 -2,-38 -5,-51 -14,-62 0,-111 30,-149 25,-32 61,-55 102,-69 39,-14 83,-20 125,-20 75,2 145,26 176,70 89,127 68,172 43,225 -7,14 -14,30 -18,49l-6 21c-14,43 -42,76 -77,96 -35,19 -76,26 -116,18l-18 -5c-192,-62 -162,-169 -138,-255 6,-22 12,-43 12,-58l-1 -12 14 -10c17,-12 78,-55 122,-40 105,35 151,91 161,143 7,32 0,63 -16,87 -15,25 -38,44 -65,52 -37,11 -81,2 -116,-40z"/>
   <path class="fil16" d="M4365 3139c44,6 78,44 78,89 0,35 -19,65 -47,80 1,6 3,12 5,17 -25,2 -48,4 -70,5 0,-4 0,-9 -1,-14l0 0c-27,-6 -49,-25 -60,-50 -2,1 -4,1 -7,1 -10,0 -19,-9 -19,-19 0,-10 8,-19 17,-20 0,-30 15,-57 38,-73 -2,-8 -4,-15 -6,-23 24,-4 47,-8 71,-12 0,6 0,12 1,19z"/>
   <path class="fil31" d="M4352 3160c38,0 68,31 68,68 0,38 -30,69 -68,69 -38,0 -68,-31 -68,-69 0,-37 30,-68 68,-68z"/>
  </g>
 </g>
</svg>
